<mxfile host="app.diagrams.net" modified="2023-06-11T07:29:46.205Z" agent="Mozilla/5.0 (Windows NT 10.0; Win64; x64) AppleWebKit/537.36 (KHTML, like Gecko) Chrome/114.0.0.0 Safari/537.36" version="21.3.8" etag="YGtS0W5Dd4wvYRHf8BlI" type="github">
  <diagram name="Strona-1" id="es89GcZaGZbY2JGxm8zb">
    <mxGraphModel>
      <root>
        <mxCell id="0" />
        <mxCell id="1" parent="0" />
      </root>
    </mxGraphModel>
  </diagram>
</mxfile>
